<svg width="138" height="36" viewBox="0 0 138 36" fill="none" xmlns="http://www.w3.org/2000/svg">
<path d="M55.1572 22.5559H46.4727V11.6859H55.0634V14.5587H49.837V15.5215H53.9367V18.1613H49.837V19.6831H55.1572V22.5559Z" fill="#002445"/>
<path d="M64.9645 14.5432V25.6617H61.6627V21.6553C61.1724 22.3903 60.437 22.7578 59.4564 22.7578C58.4341 22.7578 57.5839 22.3592 56.9058 21.5621C56.2277 20.765 55.8887 19.7608 55.8887 18.5496C55.8887 17.3383 56.2277 16.3341 56.9058 15.537C57.5839 14.7399 58.4341 14.3413 59.4564 14.3413C60.437 14.3413 61.1724 14.7088 61.6627 15.4438V14.5432H64.9645ZM61.7097 19.4502V17.6334C61.4802 17.2503 61.0681 17.0588 60.4735 17.0588C60.0771 17.0588 59.7537 17.2037 59.5033 17.4936C59.2634 17.7731 59.1434 18.1251 59.1434 18.5496C59.1434 18.974 59.2634 19.3312 59.5033 19.621C59.7537 19.9005 60.0771 20.0403 60.4735 20.0403C61.0577 20.0403 61.4698 19.8436 61.7097 19.4502Z" fill="#002445"/>
<path d="M71.4335 19.4657V14.5432H74.7196V22.5559H71.4335V21.5311C71.2457 21.8313 70.9276 22.1108 70.479 22.3696C70.0513 22.6284 69.5819 22.7578 69.0707 22.7578C68.2048 22.7578 67.5424 22.4835 67.0834 21.9348C66.6244 21.3861 66.3949 20.6149 66.3949 19.621V14.5432H69.6966V18.9222C69.6966 19.2432 69.7696 19.4864 69.9157 19.6521C70.0722 19.8177 70.2704 19.9005 70.5103 19.9005C70.8754 19.9005 71.1832 19.7556 71.4335 19.4657Z" fill="#002445"/>
<path d="M79.6338 22.5559H76.3321V14.5432H79.6338V22.5559ZM79.3052 13.6425C78.9505 13.9945 78.5123 14.1705 77.9907 14.1705C77.4691 14.1705 77.031 13.9945 76.6763 13.6425C76.3216 13.2905 76.1443 12.8505 76.1443 12.3226C76.1443 11.8153 76.3216 11.3857 76.6763 11.0337C77.0414 10.6713 77.4796 10.4902 77.9907 10.4902C78.4915 10.4902 78.9244 10.6713 79.2895 11.0337C79.6546 11.396 79.8372 11.8256 79.8372 12.3226C79.8372 12.8402 79.6598 13.2802 79.3052 13.6425Z" fill="#002445"/>
<path d="M83.6922 22.7578C82.0752 22.7578 81.2668 21.9452 81.2668 20.3198V11.6859H84.5528V19.59C84.5528 19.7349 84.5946 19.8436 84.678 19.9161C84.7615 19.9885 84.8606 20.0248 84.9753 20.0248C85.1109 20.0248 85.2413 19.9989 85.3665 19.9471V22.4472C84.9284 22.6543 84.3703 22.7578 83.6922 22.7578Z" fill="#002445"/>
<path d="M89.9485 22.5559H86.6468V14.5432H89.9485V22.5559ZM89.6199 13.6425C89.2653 13.9945 88.8271 14.1705 88.3055 14.1705C87.7839 14.1705 87.3458 13.9945 86.9911 13.6425C86.6364 13.2905 86.4591 12.8505 86.4591 12.3226C86.4591 11.8153 86.6364 11.3857 86.9911 11.0337C87.3562 10.6713 87.7943 10.4902 88.3055 10.4902C88.8062 10.4902 89.2392 10.6713 89.6043 11.0337C89.9694 11.396 90.152 11.8256 90.152 12.3226C90.152 12.8402 89.9746 13.2802 89.6199 13.6425Z" fill="#002445"/>
<path d="M91.5816 22.5559V11.6859H94.8833V15.4438C95.3736 14.7088 96.109 14.3413 97.0896 14.3413C98.112 14.3413 98.9622 14.7399 99.6402 15.537C100.318 16.3341 100.657 17.3383 100.657 18.5496C100.657 19.7608 100.318 20.765 99.6402 21.5621C98.9622 22.3592 98.112 22.7578 97.0896 22.7578C96.109 22.7578 95.3736 22.3903 94.8833 21.6553V22.5559H91.5816ZM94.8363 17.6489V19.4657C95.0658 19.8488 95.4779 20.0403 96.0725 20.0403C96.4689 20.0403 96.7871 19.9005 97.027 19.621C97.2774 19.3312 97.4026 18.974 97.4026 18.5496C97.4026 18.1251 97.2774 17.7731 97.027 17.4936C96.7871 17.2037 96.4689 17.0588 96.0725 17.0588C95.4883 17.0588 95.0763 17.2555 94.8363 17.6489Z" fill="#002445"/>
<path d="M105.014 22.5559H101.728V14.5432H105.014V15.8165C105.171 15.4852 105.489 15.1591 105.969 14.8382C106.459 14.5069 106.981 14.3413 107.534 14.3413C107.711 14.3413 107.857 14.3568 107.972 14.3879V17.4625C107.617 17.3797 107.288 17.3383 106.986 17.3383C106.11 17.3383 105.452 17.5712 105.014 18.0371V22.5559Z" fill="#002445"/>
<path d="M112.473 22.5559H109.171V14.5432H112.473V22.5559ZM112.144 13.6425C111.79 13.9945 111.352 14.1705 110.83 14.1705C110.308 14.1705 109.87 13.9945 109.516 13.6425C109.161 13.2905 108.983 12.8505 108.983 12.3226C108.983 11.8153 109.161 11.3857 109.516 11.0337C109.881 10.6713 110.319 10.4902 110.83 10.4902C111.331 10.4902 111.764 10.6713 112.129 11.0337C112.494 11.396 112.676 11.8256 112.676 12.3226C112.676 12.8402 112.499 13.2802 112.144 13.6425Z" fill="#002445"/>
<path d="M119.004 19.4657V14.5432H122.29V22.5559H119.004V21.5311C118.816 21.8313 118.498 22.1108 118.049 22.3696C117.622 22.6284 117.152 22.7578 116.641 22.7578C115.775 22.7578 115.113 22.4835 114.654 21.9348C114.195 21.3861 113.965 20.6149 113.965 19.621V14.5432H117.267V18.9222C117.267 19.2432 117.34 19.4864 117.486 19.6521C117.642 19.8177 117.841 19.9005 118.081 19.9005C118.446 19.9005 118.753 19.7556 119.004 19.4657Z" fill="#002445"/>
<path d="M127.141 22.5559H123.855V14.5432H127.141V15.5836C127.34 15.2523 127.658 14.9624 128.096 14.714C128.534 14.4655 128.993 14.3413 129.473 14.3413C130.485 14.3413 131.205 14.7709 131.632 15.6302C131.851 15.2575 132.196 14.9521 132.665 14.714C133.145 14.4655 133.651 14.3413 134.183 14.3413C134.965 14.3413 135.633 14.6156 136.186 15.1643C136.728 15.7026 137 16.4998 137 17.5557V22.5559H133.698V18.1613C133.698 17.5091 133.458 17.183 132.978 17.183C132.592 17.183 132.295 17.3383 132.086 17.6489V22.5559H128.784V18.1613C128.784 17.5091 128.545 17.183 128.065 17.183C127.689 17.183 127.381 17.3487 127.141 17.6799V22.5559Z" fill="#002445"/>
<path d="M30.6405 11.2033L24.7038 14.6136L30.6405 18.0382L36.5629 14.6136L30.6405 11.2033Z" fill="#C9EEFF"/>
<path d="M6.92238 11.2033L1 14.6136L6.92238 18.0382L12.8591 14.6136L6.92238 11.2033Z" fill="#C9EEFF"/>
<path d="M12.859 28.2265V35.0044L18.7814 31.594V24.8162L12.859 28.2265Z" fill="#5178E5"/>
<path d="M12.8591 14.6565V21.4344L6.92238 18.0241V11.2462L12.8591 14.6565Z" fill="#59A8FE"/>
<path d="M12.8591 21.4344V28.198L6.92238 24.8019V18.024L12.8591 21.4344Z" fill="#59A8FE"/>
<path d="M6.92238 18.024V24.8019L1 21.3916V14.6137L6.92238 18.024Z" fill="#59A8FE"/>
<path d="M18.7814 24.8162V31.5941L12.859 28.198V21.4201L18.7814 24.8162Z" fill="#59A8FE"/>
<path d="M24.704 14.628V21.4059L18.7816 17.9956V11.2177L24.704 14.628Z" fill="#59A8FE"/>
<path d="M12.8591 7.80726V14.5851L6.92238 11.1748V4.39692L12.8591 7.80726Z" fill="#59A8FE"/>
<path d="M24.704 28.198V34.9759L18.7816 31.5798V24.8019L24.704 28.198Z" fill="#59A8FE"/>
<path d="M12.8591 28.198V34.9759L6.92238 31.5798V24.8019L12.8591 28.198Z" fill="#59A8FE"/>
<path d="M24.7038 14.628V21.4059L30.6405 17.9956V11.2177L24.7038 14.628Z" fill="#5176E5"/>
<path d="M24.7038 7.80726V14.5851L30.6405 11.1748V4.39692L24.7038 7.80726Z" fill="#5176E5"/>
<path d="M12.859 14.628V21.4059L18.7814 17.9956V11.2177L12.859 14.628Z" fill="#5178E5"/>
<path d="M24.7038 21.4059V28.1838L30.6405 24.7734V17.9955L24.7038 21.4059Z" fill="#5176E5"/>
<path d="M30.6406 18.024V24.8019L36.563 21.3916V14.6137L30.6406 18.024Z" fill="#5176E5"/>
<path d="M18.7816 24.802V31.5798L24.704 28.1838V21.4059L18.7816 24.802Z" fill="#5176E5"/>
<path d="M24.7038 28.1837V34.9616L30.6405 31.5513V24.7734L24.7038 28.1837Z" fill="#5176E5"/>
<path d="M12.8591 7.82152L6.92238 11.2319L12.8591 14.6565L18.7815 11.2319L12.8591 7.82152Z" fill="#C9EEFF"/>
<path d="M18.7814 4.39692L12.859 7.82153L18.7814 11.2319L24.7038 7.82153L18.7814 4.39692Z" fill="#C9EEFF"/>
<path d="M18.7814 17.9955L12.859 21.4059L18.7814 24.8162L24.7038 21.4059L18.7814 17.9955Z" fill="#C9EEFF"/>
<path d="M24.704 0.986572L18.7816 4.39692L24.704 7.82153L30.6407 4.39692L24.704 0.986572Z" fill="#C9EEFF"/>
<path d="M12.8591 0.986572L6.92238 4.39692L12.8591 7.82153L18.7815 4.39692L12.8591 0.986572Z" fill="#C9EEFF"/>
<path d="M24.704 7.77869L18.7816 11.2033L24.704 14.6136L30.6407 11.2033L24.704 7.77869Z" fill="#C9EEFF"/>
<path fill-rule="evenodd" clip-rule="evenodd" d="M12.7794 0.847827C12.8288 0.819443 12.8896 0.819474 12.939 0.84791L18.7815 4.21227L24.624 0.84791C24.6734 0.819474 24.7342 0.819443 24.7836 0.847827L30.7203 4.25817C30.77 4.28671 30.8006 4.33964 30.8006 4.39693V11.1108L36.6428 14.475C36.6924 14.5036 36.723 14.5565 36.723 14.6137V21.3916C36.723 21.4488 36.6924 21.5017 36.6428 21.5303L30.8006 24.8944V31.5798C30.8006 31.6372 30.7699 31.6902 30.72 31.7187L24.7833 35.1148C24.734 35.143 24.6735 35.1429 24.6243 35.1147L18.7815 31.7643L12.9387 35.1147C12.8895 35.1429 12.8289 35.143 12.7796 35.1148L6.84292 31.7187C6.7931 31.6902 6.76235 31.6372 6.76235 31.5798V24.8944L0.920144 21.5303C0.870543 21.5017 0.839973 21.4488 0.839973 21.3916V14.6137C0.839973 14.5565 0.870543 14.5036 0.920144 14.475L6.76235 11.1108V4.39693C6.76235 4.33964 6.79299 4.28671 6.84267 4.25817L12.7794 0.847827ZM7.08241 4.48956V11.2034C7.08241 11.2606 7.05184 11.3135 7.00224 11.342L1.16003 14.7062V21.2991L7.00224 24.6632C7.05184 24.6918 7.08241 24.7447 7.08241 24.8019V31.487L12.859 34.7915L18.7019 31.441C18.7512 31.4127 18.8118 31.4127 18.8611 31.441L24.704 34.7915L30.4805 31.487V24.8019C30.4805 24.7447 30.5111 24.6918 30.5607 24.6632L36.4029 21.2991V14.7062L30.5607 11.342C30.5111 11.3135 30.4805 11.2606 30.4805 11.2034V4.48956L24.704 1.17119L18.8613 4.53561C18.8119 4.56408 18.7511 4.56408 18.7016 4.53561L12.859 1.17119L7.08241 4.48956Z" fill="#001423"/>
<path fill-rule="evenodd" clip-rule="evenodd" d="M0.86176 14.5331C0.906277 14.4567 1.00426 14.4309 1.08061 14.4755L7.00299 17.9286C7.07934 17.9731 7.10515 18.0711 7.06063 18.1475C7.01611 18.2238 6.91813 18.2496 6.84178 18.2051L0.919398 14.7519C0.843048 14.7074 0.817243 14.6094 0.86176 14.5331Z" fill="white"/>
<path fill-rule="evenodd" clip-rule="evenodd" d="M12.859 28.0665C12.9474 28.0665 13.0191 28.1381 13.0191 28.2265V34.9758C13.0191 35.0642 12.9474 35.1359 12.859 35.1359C12.7707 35.1359 12.699 35.0642 12.699 34.9758V28.2265C12.699 28.1381 12.7707 28.0665 12.859 28.0665Z" fill="white"/>
<path fill-rule="evenodd" clip-rule="evenodd" d="M12.699 28.2265V21.4344H13.0191V28.2265H12.699Z" fill="#001423"/>
<path fill-rule="evenodd" clip-rule="evenodd" d="M6.76236 24.8019V11.2033H7.08241V24.8019H6.76236Z" fill="#001423"/>
<path fill-rule="evenodd" clip-rule="evenodd" d="M24.8638 21.4059V28.198H24.5438V21.4059H24.8638Z" fill="#001423"/>
<path fill-rule="evenodd" clip-rule="evenodd" d="M24.7038 28.038C24.7922 28.038 24.8638 28.1096 24.8638 28.198V34.9759C24.8638 35.0643 24.7922 35.1359 24.7038 35.1359C24.6154 35.1359 24.5438 35.0643 24.5438 34.9759V28.198C24.5438 28.1096 24.6154 28.038 24.7038 28.038Z" fill="white"/>
<path fill-rule="evenodd" clip-rule="evenodd" d="M36.7013 14.5046C36.7458 14.5809 36.72 14.6789 36.6436 14.7234L30.7212 18.1766C30.6449 18.2211 30.5469 18.1953 30.5024 18.119C30.4579 18.0426 30.4837 17.9446 30.56 17.9001L36.4824 14.4469C36.5588 14.4024 36.6567 14.4282 36.7013 14.5046Z" fill="white"/>
<path fill-rule="evenodd" clip-rule="evenodd" d="M30.7789 4.31646C30.8233 4.39285 30.7974 4.49081 30.721 4.53525L24.7843 7.9884C24.7079 8.03284 24.6099 8.00693 24.5655 7.93053C24.521 7.85413 24.5469 7.75618 24.6233 7.71174L30.5601 4.25859C30.6365 4.21415 30.7344 4.24006 30.7789 4.31646Z" fill="white"/>
<path fill-rule="evenodd" clip-rule="evenodd" d="M6.78405 4.31646C6.82849 4.24006 6.92645 4.21415 7.00284 4.25859L12.9396 7.71174C13.016 7.75618 13.0419 7.85413 12.9974 7.93053C12.953 8.00693 12.855 8.03284 12.7786 7.9884L6.84192 4.53525C6.76553 4.49081 6.73962 4.39285 6.78405 4.31646Z" fill="white"/>
<path fill-rule="evenodd" clip-rule="evenodd" d="M30.8007 11.3746V24.9589H30.4806V11.3746H30.8007Z" fill="#001423"/>
<path fill-rule="evenodd" clip-rule="evenodd" d="M12.7794 21.5589L6.85706 18.1629L7.01627 17.8852L12.9386 21.2813L12.7794 21.5589Z" fill="#001423"/>
<path fill-rule="evenodd" clip-rule="evenodd" d="M18.7016 31.7755L6.84248 24.9406L7.00229 24.6633L18.8614 31.4982L18.7016 31.7755Z" fill="#001423"/>
<path fill-rule="evenodd" clip-rule="evenodd" d="M18.6011 31.4983L30.4459 24.6633L30.6058 24.9405L18.7611 31.7755L18.6011 31.4983Z" fill="#001423"/>
<path fill-rule="evenodd" clip-rule="evenodd" d="M24.6248 21.2666L30.5616 17.8991L30.7195 18.1775L24.7828 21.545L24.6248 21.2666Z" fill="#001423"/>
<path fill-rule="evenodd" clip-rule="evenodd" d="M18.7047 11.0773L24.8279 7.724L24.9816 8.00472L18.8585 11.358L18.7047 11.0773Z" fill="#001423"/>
<path fill-rule="evenodd" clip-rule="evenodd" d="M30.9482 11.5704L18.7019 4.53568L18.8613 4.25815L31.1076 11.2929L30.9482 11.5704Z" fill="#001423"/>
<path fill-rule="evenodd" clip-rule="evenodd" d="M12.9389 7.66851L18.8613 11.0789C18.9109 11.1074 18.9415 11.1603 18.9415 11.2175V17.8464L24.6841 21.1962L24.5228 21.4726L18.7008 18.0766C18.6516 18.0479 18.6214 17.9953 18.6214 17.9383V11.31L12.7792 7.94586L12.9389 7.66851Z" fill="#001423"/>
<path fill-rule="evenodd" clip-rule="evenodd" d="M6.8426 11.0646L18.7017 4.24394L18.8613 4.52138L7.00217 11.3421L6.8426 11.0646Z" fill="#001423"/>
<path fill-rule="evenodd" clip-rule="evenodd" d="M12.7363 21.2101L18.7017 17.7712L18.8615 18.0485L12.8961 21.4874L12.7363 21.2101Z" fill="#001423"/>
<path fill-rule="evenodd" clip-rule="evenodd" d="M6.78405 11.1228C6.82849 11.0464 6.92645 11.0205 7.00284 11.065L12.9396 14.5181C12.9888 14.5468 13.0191 14.5994 13.0191 14.6564V21.3273L18.8611 24.6773C18.9108 24.7058 18.9415 24.7588 18.9415 24.8161V31.5797C18.9415 31.6681 18.8699 31.7398 18.7815 31.7398C18.6931 31.7398 18.6215 31.6681 18.6215 31.5797V24.9088L12.7795 21.5589C12.7298 21.5303 12.6991 21.4774 12.6991 21.42V14.7485L6.84192 11.3416C6.76553 11.2972 6.73962 11.1992 6.78405 11.1228Z" fill="white"/>
<path fill-rule="evenodd" clip-rule="evenodd" d="M30.779 11.1228C30.8235 11.1992 30.7975 11.2972 30.7212 11.3416L24.864 14.7485V21.42C24.864 21.4774 24.8333 21.5303 24.7836 21.5589L18.8612 24.9549C18.7845 24.9989 18.6867 24.9724 18.6428 24.8957C18.5988 24.8191 18.6253 24.7213 18.702 24.6773L24.5439 21.3273V14.6564C24.5439 14.5994 24.5743 14.5468 24.6235 14.5181L30.5602 11.065C30.6366 11.0205 30.7346 11.0464 30.779 11.1228Z" fill="white"/>
<path fill-rule="evenodd" clip-rule="evenodd" d="M18.7013 11.0934C18.7509 11.0647 18.812 11.0647 18.8615 11.0934L24.7839 14.518C24.8604 14.5623 24.8866 14.6602 24.8423 14.7367C24.7981 14.8132 24.7002 14.8393 24.6237 14.7951L18.7814 11.4168L12.9392 14.7951C12.8626 14.8393 12.7648 14.8132 12.7205 14.7367C12.6763 14.6602 12.7024 14.5623 12.7789 14.518L18.7013 11.0934Z" fill="white"/>
</svg>
