<svg width="245" height="74" viewBox="0 0 245 74" fill="none" xmlns="http://www.w3.org/2000/svg">
<path d="M107.054 47.9526C109.168 47.9526 111.114 47.6173 112.96 46.913C114.805 46.2088 116.181 45.3368 117.087 44.3643V33.8004H109.839V41.0107C109.201 41.4467 108.262 41.6814 107.054 41.6814C105.477 41.6814 104.168 41.1784 103.06 40.1388C101.953 39.0991 101.416 37.6906 101.416 35.8461C101.215 30.5139 107.691 28.3676 114 31.6206V25.014C113.228 24.6787 112.624 24.4439 112.154 24.2762C111.718 24.1085 111.047 23.9409 110.208 23.7732C109.369 23.6055 108.396 23.5384 107.356 23.5384C103.497 23.5384 100.309 24.6787 97.792 26.9591C95.2752 29.206 94 32.1572 94 35.7455C94 39.3339 95.2416 42.2515 97.7584 44.532C100.275 46.8124 103.362 47.9526 107.054 47.9526ZM129.051 47.9191C132.272 47.9191 134.655 47.349 136.199 46.2423V41.0778C134.554 41.9497 132.675 42.3857 130.628 42.3857C128.581 42.3857 126.668 41.7149 126.098 40.34H137.105V38.7302C137.105 35.9803 136.299 33.8004 134.689 32.1907C133.078 30.5475 131.064 29.7426 128.682 29.7426C125.897 29.7426 123.648 30.6145 121.937 32.3584C120.225 34.1023 119.386 36.2486 119.386 38.8309C119.386 41.6479 120.326 43.8613 122.205 45.5045C124.084 47.1142 126.366 47.9191 129.051 47.9191ZM125.964 36.9864C126.199 35.3766 127.037 34.4712 128.346 34.4712C129.554 34.4712 130.527 35.4102 130.561 36.9864H125.964ZM146.612 36.8522C147.149 36.215 147.82 35.9132 148.592 35.9132C149.565 35.9132 150.337 36.5839 150.337 38.026V47.4831H157.417V36.5169C157.417 32.2578 155.403 29.7426 151.679 29.7426C150.605 29.7426 149.598 30.0109 148.625 30.581C147.686 31.1511 147.014 31.7548 146.612 32.3919V30.1786H139.565V47.4831H146.612V36.8522ZM167.049 47.9191C172.687 47.9191 175.707 45.5716 175.707 42.1845C175.707 39.2668 174.297 37.9589 170.539 36.7852L168.459 36.215C168.224 36.148 167.989 36.0809 167.754 35.9803C167.25 35.7455 167.049 35.5779 167.049 35.3431C167.049 34.9407 167.452 34.7395 168.224 34.7395C169.297 34.7395 170.472 34.9407 171.781 35.3096C173.089 35.6785 174.13 36.1144 174.969 36.6175V31.4194C172.989 30.3127 170.74 29.7426 168.157 29.7426C162.922 29.7426 159.7 31.7883 159.7 35.3766C159.7 36.8187 160.069 37.8918 160.841 38.6296C161.613 39.3339 162.922 40.0381 164.801 40.6753L166.613 41.2119C167.418 41.4467 167.955 41.6143 168.19 41.7485C168.459 41.8826 168.593 42.0503 168.593 42.2515C168.593 42.6875 168.123 42.8887 167.15 42.8887C165.841 42.8887 164.465 42.721 163.089 42.3521C161.714 41.9832 160.64 41.5473 159.834 41.0778V46.41C161.546 47.4161 163.962 47.9191 167.049 47.9191ZM185.053 36.8522C185.59 36.215 186.261 35.9132 187.032 35.9132C188.006 35.9132 188.777 36.5839 188.777 38.026V47.4831H195.858V36.5169C195.858 32.2578 193.845 29.7426 190.12 29.7426C189.046 29.7426 188.039 30.0109 187.066 30.581C186.126 31.1511 185.455 31.7548 185.053 32.3919V24.0079H178.006V47.4831H185.053V36.8522ZM206.093 47.4831V30.1786H199.014V47.4831H206.093ZM202.571 29.3737C204.819 29.3737 206.531 27.6298 206.531 25.3829C206.531 24.2762 206.128 23.3707 205.356 22.5994C204.585 21.8281 203.679 21.4257 202.571 21.4257C201.464 21.4257 200.524 21.8281 199.752 22.5994C198.981 23.3707 198.611 24.2762 198.611 25.3829C198.611 26.4896 198.981 27.4621 199.752 28.2335C200.524 29.0048 201.464 29.3737 202.571 29.3737ZM216.643 47.4831V37.7242C217.583 36.7181 218.992 36.215 220.872 36.215C221.576 36.215 222.281 36.3157 222.986 36.4833V29.8432C222.751 29.7761 222.415 29.7426 222.046 29.7426C220.838 29.7426 219.731 30.1115 218.69 30.8157C217.65 31.52 216.979 32.2243 216.643 32.9285V30.1786H209.596V47.4831H216.643ZM232.135 41.0778C231.565 40.4741 231.296 39.7363 231.296 38.8309C231.296 37.9254 231.565 37.1876 232.135 36.6175C233.242 35.4102 235.323 35.4102 236.43 36.6175C237.001 37.1876 237.269 37.9254 237.269 38.8309C237.269 39.7363 237.001 40.4741 236.43 41.0778C235.323 42.2515 233.242 42.2515 232.135 41.0778ZM234.283 47.9191C237.135 47.9191 239.518 47.0472 241.363 45.3368C243.243 43.6265 244.182 41.4467 244.182 38.8309C244.182 36.215 243.243 34.0352 241.363 32.3249C239.518 30.6145 237.135 29.7426 234.283 29.7426C231.43 29.7426 229.081 30.6145 227.202 32.3249C225.357 34.0352 224.417 36.215 224.417 38.8309C224.417 41.4467 225.357 43.6265 227.202 45.3368C229.081 47.0472 231.43 47.9191 234.283 47.9191Z" fill="#1D2325"/>
<path fill-rule="evenodd" clip-rule="evenodd" d="M38.6799 19.3434C40.7699 19.558 42.8574 20.2537 44.8464 21.3986L45.3573 21.6926L45.2953 21.8121C45.2612 21.8779 44.9847 22.3566 44.6808 22.876C44.377 23.3954 43.9127 24.191 43.649 24.6441C43.3854 25.0972 43.0159 25.7301 42.8278 26.0505C42.1696 27.1723 40.4654 30.0955 40.0634 30.7923C39.8403 31.1791 39.6549 31.4996 39.6514 31.5045C39.6479 31.5094 39.5329 31.4607 39.3959 31.3962C38.6187 31.0306 37.8464 30.9115 36.7499 30.9882C36.0001 31.0407 35.3891 31.1648 34.8807 31.3678C34.5749 31.49 34.5326 31.498 34.502 31.4402C34.4831 31.4043 34.1087 30.7059 33.67 29.8882C31.8018 26.4055 30.9565 24.8309 30.6712 24.3025C30.5041 23.9931 30.3088 23.6314 30.2373 23.4988C29.5957 22.3101 29.2793 21.7055 29.2923 21.6932C29.3675 21.6218 30.3647 21.0741 30.8723 20.8255C32.5131 20.0217 34.1069 19.5542 35.8605 19.3624C36.479 19.2947 38.0991 19.2838 38.6799 19.3434ZM37.5488 32.3237C38.4705 32.4316 39.3224 32.8476 39.9267 33.4846C40.2598 33.8359 40.4049 34.0489 40.6228 34.5065C40.8592 35.003 40.959 35.4096 40.9883 35.9962C41.0264 36.7582 40.8902 37.3843 40.544 38.039C39.8433 39.3644 38.4433 40.1401 36.8904 40.0632C35.8536 40.0118 35.0471 39.6564 34.317 38.9291C33.9024 38.516 33.6675 38.1689 33.4651 37.6706C32.8824 36.2357 33.2208 34.5168 34.2974 33.442C35.1342 32.6067 36.3611 32.1847 37.5488 32.3237ZM53.5479 36.7275C53.5899 37.2845 53.5413 39.0015 53.4669 39.5912C53.1894 41.7908 52.4155 43.8843 51.1938 45.7398C50.1935 47.2589 48.9175 48.537 47.2442 49.6959C46.7211 50.0582 46.0497 50.4827 45.9998 50.4827C45.9881 50.4827 45.856 50.2883 45.7063 50.0507C45.5565 49.8131 45.3927 49.5555 45.3422 49.4781C44.9548 48.8845 39.9525 40.902 39.9525 40.8775C39.9525 40.8602 40.0752 40.7555 40.2251 40.6449C40.838 40.1929 41.2997 39.5952 41.7293 38.6973C42.0939 37.9352 42.2024 37.5523 42.3609 36.4684L42.38 36.3378H47.9492H53.5185L53.5479 36.7275ZM31.81 36.388C31.8184 36.4157 31.8533 36.7004 31.8876 37.0209C31.9683 37.7742 32.1072 38.3066 32.3548 38.8109C32.7366 39.5883 33.3551 40.2654 34.1713 40.7993L34.2651 40.8607L32.9513 42.9492C32.2287 44.0979 31.0282 46.0052 30.2835 47.1876C29.5388 48.37 28.7692 49.5949 28.5732 49.9096C28.3773 50.2242 28.2027 50.4819 28.1853 50.4822C28.1226 50.4832 27.1962 49.8887 26.6819 49.5174C25.9079 48.9585 25.2999 48.4364 24.6414 47.7651C23.5027 46.6041 22.7887 45.5855 22.0538 44.0733C21.2066 42.3301 20.7864 40.736 20.6396 38.7087C20.5942 38.0825 20.6121 36.4593 20.6653 36.3737C20.6782 36.3528 23.0172 36.3378 26.2411 36.3378C30.6489 36.3378 31.7979 36.3481 31.81 36.388Z" fill="#1D2325"/>
<path fill-rule="evenodd" clip-rule="evenodd" d="M0 37C0 16.6063 16.6063 0 37 0C57.3937 0 74 16.6063 74 37C74 57.3937 57.3937 74 37 74C16.6063 74 0 57.3937 0 37ZM66.0486 46.3335C67.6576 46.7606 69.3905 47.2207 70.7953 47.6339C71.5236 45.5945 71.9606 43.4094 71.9606 40.7874C71.4326 40.712 70.9046 40.6756 70.3563 40.6378C69.8458 40.6027 69.3178 40.5663 68.7559 40.4961C67.1309 40.3155 64.4988 40.079 61.6225 39.8212C61.3743 41.5415 60.9492 43.2046 60.366 44.7913C61.1956 45.0201 61.9797 45.2345 62.7835 45.4488C63.666 45.701 64.8212 46.0077 66.0486 46.3335ZM58.3661 48.9688C57.6013 50.243 56.725 51.4426 55.7507 52.5542C55.7645 52.5652 55.778 52.576 55.7913 52.5866C56.2765 52.9394 56.8684 53.3723 57.5146 53.845C59.0028 54.9334 60.7788 56.2324 62.2008 57.248C62.6378 57.5394 63.0748 57.8671 63.5118 58.1949C63.9488 58.5226 64.3858 58.8504 64.8228 59.1417C66.1339 57.3937 67.2992 55.6457 68.3189 53.752C67.1535 53.315 65.9882 52.7323 64.8228 52.1496C62.6378 51.1299 60.4528 50.1102 60.0158 49.8189C59.831 49.6957 59.2298 49.3904 58.3661 48.9688ZM52.5922 55.5753C51.5029 56.4476 50.3382 57.2296 49.1094 57.91C49.2986 58.1849 49.4866 58.458 49.6724 58.7279C51.2552 61.0271 52.6802 63.097 53.315 64.0945C53.6791 64.6043 54.0433 65.1506 54.4075 65.6968C54.7717 66.2431 55.1358 66.7894 55.5 67.2992C57.248 66.2795 58.8504 64.9685 60.4528 63.6575L60.4526 63.6574C59.1417 62.3464 57.8307 61.0354 56.5197 59.5787C55.172 58.2311 53.8629 56.8834 52.5922 55.5753ZM45.1915 59.6529C43.9282 60.0873 42.6186 60.4222 41.2722 60.6484C41.6024 61.9113 41.8969 62.9857 42.0984 63.6575C42.4083 64.7935 42.7913 66.369 43.0919 67.605C43.2152 68.1123 43.3247 68.5625 43.4095 68.9016C43.5311 69.388 43.6273 69.8237 43.7193 70.2404C43.8478 70.822 43.9681 71.3666 44.1378 71.9606C46.1772 71.5236 48.0709 70.9409 49.9646 70.2126C49.5276 69.0473 49.0906 68.1733 48.6536 67.2993L48.6535 67.2992C47.7796 65.1143 47.0513 63.6576 46.9055 63.3662L46.9055 63.3661C46.6444 62.931 46.1753 61.8718 45.6225 60.6236C45.4835 60.3097 45.3391 59.9838 45.1915 59.6529ZM37.4284 60.9895C37.3343 60.9906 37.24 60.9911 37.1457 60.9911C35.9382 60.9911 34.751 60.9046 33.5899 60.7374C33.4501 62.3638 33.2803 64.4132 33.0606 67.0644C32.9347 68.5846 32.7924 70.3025 32.6299 72.252L32.6301 72.252C34.0867 72.3976 35.5434 72.5433 37.1457 72.5433H38.4567C38.2489 70.6733 38.1152 68.8773 38.0028 67.3668C37.9576 66.7594 37.9158 66.1982 37.874 65.6969C37.7255 64.3599 37.5769 62.72 37.4284 60.9895ZM29.7974 59.8811C28.5716 59.5002 27.3866 59.0265 26.2507 58.4682C24.4981 62.3855 22.9163 65.8326 21.5591 68.7559C23.3071 69.6299 25.0551 70.3583 26.9488 70.9409C27.2402 69.6299 27.6772 67.8819 28.1142 66.4252C28.6969 63.9488 29.4252 61.0354 29.7165 60.1614C29.7414 60.0743 29.7685 59.9808 29.7974 59.8811ZM22.8722 56.459C21.8483 55.7341 20.8819 54.9334 19.9813 54.0649C17.4461 56.6546 14.8099 59.3861 12.2362 62.0551C13.5472 63.5118 15.0039 64.6772 16.6063 65.8425C16.8976 65.357 17.3185 64.7419 17.7393 64.1269C17.9497 63.8193 18.1601 63.5118 18.3543 63.2205C18.4849 63.0246 18.6708 62.7441 18.9037 62.3927C19.7439 61.1251 21.196 58.9343 22.8722 56.459ZM17.3895 51.1394C16.5605 50.0404 15.821 48.87 15.182 47.639C14.1812 48.1201 13.116 48.6335 12.0507 49.1469C11.3788 49.4707 10.7069 49.7945 10.0512 50.1102C8.44897 50.8385 6.70111 51.7124 5.24449 52.4407L5.24409 52.4409C6.11811 54.189 7.1378 55.937 8.30315 57.5394C8.37598 57.4665 8.44882 57.4301 8.52165 57.3937C8.59449 57.3573 8.66732 57.3209 8.74016 57.248C11.348 55.2071 12.5438 54.4018 14.2509 53.252C14.737 52.9246 15.2646 52.5693 15.878 52.1496C16.2279 51.9496 16.7494 51.5952 17.3895 51.1394ZM13.65 44.0007C13.2354 42.7416 12.9192 41.4378 12.7105 40.0985C10.9052 40.2613 9.00427 40.4418 7.29007 40.6045C5.9684 40.7299 4.75771 40.8449 3.7874 40.9331C3.49606 40.9331 3.16831 40.9695 2.84055 41.0059C2.5128 41.0423 2.18504 41.0787 1.8937 41.0787C1.91304 41.2044 1.93238 41.3308 1.9518 41.4577C2.225 43.2425 2.51505 45.1375 3.05906 46.9055C4.70925 46.4104 6.73332 45.8687 8.7342 45.3331C10.2658 44.9231 11.7839 44.5167 13.1102 44.1378C13.2873 44.0935 13.4673 44.0478 13.65 44.0007ZM12.4159 35.9807C12.4305 34.6653 12.5477 33.3745 12.76 32.1161C12.6803 32.0928 12.6028 32.0698 12.5276 32.0472C11.2703 31.6282 9.7117 31.2091 8.55619 30.8984C8.10509 30.7771 7.71544 30.6723 7.42913 30.5905C6.70079 30.2992 4.66142 29.7165 2.47638 29.1339C2.03937 31.0276 1.74803 33.0669 1.60236 35.1063H1.8937C5.07419 35.3183 9.18058 35.6847 12.4159 35.9807ZM13.7845 28.1219C14.2644 26.744 14.8628 25.4217 15.5675 24.167C15.1644 23.8786 14.761 23.59 14.3584 23.302C11.8568 21.5126 9.3899 19.748 7.28346 18.2087C6.11811 19.9567 5.2441 21.7047 4.37008 23.5984L4.37016 23.5985C5.24415 24.0355 6.11814 24.4725 7.1378 24.9094C9.57872 26.0929 11.7943 27.1637 13.7845 28.1219ZM21.3767 25.7539C21.6164 25.4187 21.8688 25.0913 22.1417 24.7638C22.131 24.7531 22.1202 24.7423 22.1094 24.7314C25.5727 20.2211 31.0196 17.3136 37.1457 17.3136C47.6094 17.3136 56.0919 25.7961 56.0919 36.2598C56.0919 46.7235 47.6094 55.206 37.1457 55.206C26.682 55.206 18.1995 46.7235 18.1995 36.2598C18.1995 32.3735 19.3696 28.7605 21.3767 25.7539ZM18.126 20.451C17.7433 20.0289 17.3534 19.5979 16.9614 19.1647C14.8306 16.8094 12.6389 14.3869 11.2165 12.9646C12.3819 11.6535 13.6929 10.4882 15.0039 9.4685C17.1709 11.6355 19.212 14.1802 21.3613 17.2198C20.1861 18.1951 19.1028 19.2771 18.126 20.451ZM25.0379 14.69C26.2768 13.9931 27.5818 13.3998 28.9411 12.922L28.6969 11.9449C28.2967 10.5844 27.8966 9.00414 27.5448 7.61463C27.2562 6.47489 27.0001 5.46351 26.8032 4.80709C26.7303 4.51575 26.6575 4.26083 26.5846 4.00591C26.5118 3.75098 26.439 3.49606 26.3661 3.20472C24.4724 3.7874 22.5787 4.66142 20.8307 5.53543C22.1417 8.30315 23.1614 10.6339 23.4528 11.3622C23.7519 11.8856 24.3197 13.1 25.0379 14.69ZM33.1293 11.853C34.4365 11.6395 35.7781 11.5285 37.1457 11.5285C37.352 11.5285 37.5577 11.5311 37.7628 11.5361C37.7667 11.4947 37.7705 11.4534 37.7744 11.412C37.9653 9.37006 38.1582 7.30708 38.311 5.24409C38.311 4.33917 38.4258 3.20479 38.5534 1.94278C38.5696 1.78274 38.586 1.62064 38.6024 1.45669H37.1457C35.252 1.45669 33.6496 1.60236 31.9016 1.8937C32.0463 3.08787 32.2001 4.29102 32.3561 5.5121C32.6179 7.56119 32.8862 9.66076 33.1293 11.853ZM42.0795 12.0207C43.5613 12.3207 44.995 12.7532 46.3678 13.3052C47.2812 11.2326 47.8931 9.88087 48.0709 9.61417C48.2165 9.32283 49.2362 7.13779 50.5472 4.07874C48.6535 3.20472 46.6142 2.62205 44.5748 2.18504C44.1378 3.7874 43.8465 4.95276 43.7008 5.6811C43.5107 6.37793 43.3207 7.15741 43.1426 7.88775C42.9112 8.83683 42.7001 9.70292 42.5354 10.1968L42.0795 12.0207ZM50.5699 15.4855C51.8657 16.3246 53.0781 17.2816 54.1918 18.3415C55.2529 17.2666 56.2959 16.1975 57.3209 15.1469C58.7393 13.6929 60.1232 12.2744 61.4724 10.9252C59.8701 9.4685 58.1221 8.15748 56.374 6.99213C54.8128 9.263 52.6984 12.3636 50.5699 15.4855ZM57.3159 21.9456C58.6701 20.9576 60.073 19.9232 61.3207 19.0031C61.6242 18.7793 61.9186 18.5623 62.2008 18.3543C62.7835 17.9173 63.8032 17.189 64.6772 16.6063C64.8228 16.4606 65.2598 16.1693 65.6968 15.878L65.6969 15.878C67.0079 17.626 68.1732 19.5197 69.0472 21.5591C67.9789 22.0651 66.8021 22.6363 65.5083 23.2642C63.7815 24.1022 61.8464 25.0414 59.6831 26.0617C59.0249 24.6093 58.2304 23.2319 57.3159 21.9456ZM61.2037 30.5042C61.3068 30.4799 61.3967 30.46 61.4724 30.4449C63.4999 29.8486 65.332 29.3499 68.5676 28.4693C69.2841 28.2743 70.0694 28.0605 70.9409 27.8228C71.0866 27.8228 71.2323 27.8228 71.2323 27.6772C71.815 29.7165 72.1063 32.0472 72.252 34.2323C71.9044 34.2323 71.5236 34.2655 71.1255 34.3001C70.6894 34.3381 70.2325 34.378 69.7756 34.378C67.3918 34.6289 64.0356 34.8798 61.8473 35.0377C61.7717 33.4846 61.5529 31.9691 61.2037 30.5042Z" fill="#1D2325"/>
</svg>
